<svg xmlns="http://www.w3.org/2000/svg" width="960" height="958.405" viewBox="0 0 960 958.405"><g transform="translate(-0.082 510.945)"><path d="M465.47-507.86a30.788,30.788,0,0,0-9.566,7.878c-1.876,2.626-33.012,68.274-69.4,145.552L320.48-213.754,170.427-190.684C4.8-165.55,10.244-166.863,3.492-152.045c-4.314,9.378-4.5,15.943-.75,24.571C4.992-121.659,83.4-39.88,193.31,71.348l29.823,30.011L197.812,256.1c-13.88,85.155-25.322,158.119-25.322,162.433,0,21.2,23.821,34.888,43.328,25.134,4.5-2.251,65.461-35.825,135.423-74.464,74.277-41.077,128.671-69.963,130.547-69.4,1.688.375,59.646,32.074,128.671,70.15,153.805,84.968,140.3,78.028,150.616,76.9,14.63-1.688,26.635-14.443,26.635-28.323,0-4.314-11.442-77.278-25.322-162.433L737.067,101.358,766.89,71.348C869.3-32.377,955.208-121.847,957.646-127.474c3.564-8.628,3.189-15.381-.938-24.571-6.752-14.818-1.313-13.5-166.935-38.826L639.72-213.755,573.7-354.43c-36.388-77.465-67.524-142.926-69.4-145.552C497.169-510.3,478.224-514.237,465.47-507.86Zm72.776,219.266c48.2,102.6,57.771,121.731,63.023,125.858,5.815,4.314,15.568,6.19,133.36,24.2,69.963,10.691,128.3,19.507,129.609,19.507,1.5,0,2.251.75,1.876,1.688-.188.938-41.827,44.078-92.471,95.847-50.456,51.769-93.408,96.785-95.1,100.161a33.31,33.31,0,0,0-3.376,10.691c0,2.814,9.754,64.336,21.57,136.924s21.383,132.422,21.2,132.985c-.375.75-51.581-27.2-114.041-61.71C493.23,236.219,490.229,234.531,480.1,234.531c-9.941.188-13.5,1.876-123.794,63.023-62.46,34.7-113.666,62.46-114.041,61.9-.188-.75,9.378-60.584,21.2-133.173s21.57-134.11,21.57-136.924a33.311,33.311,0,0,0-3.376-10.691C279.966,75.286,237.2,30.27,186.557-21.5,136.1-73.267,94.462-116.22,94.087-116.97c-.188-.75,8.628-2.814,19.695-4.5,11.254-1.688,67.524-10.316,125.295-19.132s107.288-16.506,110.289-17.069c12-2.438,15.193-8.253,73.526-132.61,30.761-65.648,56.458-119.48,57.208-119.48C480.663-409.762,506.922-355.18,538.246-288.594Z" transform="translate(0)" fill="#00296b"/></g></svg>