<svg xmlns="http://www.w3.org/2000/svg" width="511.817" height="510.966" viewBox="0 0 511.817 510.966">
  <g id="blackstar2" transform="translate(-0.082 510.945)">
    <path id="Path_1" data-name="Path 1" d="M248.2-509.3a16.415,16.415,0,0,0-5.1,4.2c-1,1.4-17.6,36.4-37,77.6l-35.2,75-80,12.3c-88.3,13.4-85.4,12.7-89,20.6-2.3,5-2.4,8.5-.4,13.1,1.2,3.1,43,46.7,101.6,106l15.9,16L105.5-102C98.1-56.6,92-17.7,92-15.4,92-4.1,104.7,3.2,115.1-2c2.4-1.2,34.9-19.1,72.2-39.7,39.6-21.9,68.6-37.3,69.6-37,.9.2,31.8,17.1,68.6,37.4C407.5,4,400.3.3,405.8-.3,413.6-1.2,420-8,420-15.4c0-2.3-6.1-41.2-13.5-86.6L393-184.5l15.9-16c54.6-55.3,100.4-103,101.7-106,1.9-4.6,1.7-8.2-.5-13.1-3.6-7.9-.7-7.2-89-20.7l-80-12.2-35.2-75c-19.4-41.3-36-76.2-37-77.6C265.1-510.6,255-512.7,248.2-509.3ZM287-392.4c25.7,54.7,30.8,64.9,33.6,67.1,3.1,2.3,8.3,3.3,71.1,12.9,37.3,5.7,68.4,10.4,69.1,10.4.8,0,1.2.4,1,.9-.1.5-22.3,23.5-49.3,51.1-26.9,27.6-49.8,51.6-50.7,53.4a17.759,17.759,0,0,0-1.8,5.7c0,1.5,5.2,34.3,11.5,73S382.9-47.3,382.8-47c-.2.4-27.5-14.5-60.8-32.9-59-32.7-60.6-33.6-66-33.6-5.3.1-7.2,1-66,33.6-33.3,18.5-60.6,33.3-60.8,33-.1-.4,5-32.3,11.3-71s11.5-71.5,11.5-73a17.759,17.759,0,0,0-1.8-5.7c-.9-1.8-23.7-25.8-50.7-53.4-26.9-27.6-49.1-50.5-49.3-50.9-.1-.4,4.6-1.5,10.5-2.4,6-.9,36-5.5,66.8-10.2s57.2-8.8,58.8-9.1c6.4-1.3,8.1-4.4,39.2-70.7,16.4-35,30.1-63.7,30.5-63.7C256.3-457,270.3-427.9,287-392.4Z" fill="#00296b"/>
  </g>
</svg>
