<svg xmlns="http://www.w3.org/2000/svg" xmlns:xlink="http://www.w3.org/1999/xlink" width="960" height="960" viewBox="0 0 960 960"><defs><clipPath id="b"><rect width="960" height="960"/></clipPath></defs><g id="a" clip-path="url(#b)"><g transform="translate(-0.512 534.369)"><path d="M592.969-484.014a401.128,401.128,0,0,0-73.4,15.769c-26.095,8.448-67.959,29.661-90.111,45.431-21.965,15.957-53.691,47.308-68.146,67.583-23.466,33.041-39.987,72.277-45.619,107.758-1.69,10.7-3.379,20.463-3.755,21.777-.751,2.816-3.191,3.379-28.347,6.2-62.139,6.946-129.722,34.918-179.1,74.342C50.051-101.794,15.133-45.475,3.118,17.979c-4.13,21.4-3.191,67.583,1.69,90.486,9.2,42.99,27.6,80.537,56.883,116.393,10.137,12.39,11.264,14.268,12.953,26.658a121.37,121.37,0,0,1-4.13,47.121,140.72,140.72,0,0,1-16.9,33.041c-2.44,3.191-7.134,9.387-10.325,13.892-6.571,8.448-7.509,13.7-4.13,21.214,4.881,10.7,17.459,12.766,47.871,7.885,39.048-6.383,68.71-19.712,100.436-45.243l12.578-9.95,11.827,3.755c21.589,6.383,58.76,12.766,89.548,15.206,66.457,5.069,126.719-6.571,185.291-35.857,33.041-16.708,56.507-33.228,81.663-58.384,30.037-29.849,51.814-63.453,65.33-100.436,6.007-15.957,13.517-49.373,13.517-59.135,0-6.946,4.881-9.387,18.4-9.387,16.708,0,85.042-13.329,92.551-18.022.939-.563,7.321,3.567,14.268,9.2,32.1,25.719,61.764,39.048,100.812,45.431,30.412,4.881,42.99,2.816,47.871-7.885,3.379-7.509,2.44-12.766-3.942-21.214-3.379-4.506-8.072-10.7-10.513-13.892-16.52-22.152-24.781-53.5-21.026-80.161,1.69-12.39,2.816-14.268,12.953-26.658,38.3-46.933,58.384-97.808,61.576-156,1.314-23.842-1.126-45.619-8.072-72.089C916.617-402.915,754.981-500.91,592.969-484.014Zm69.461,37.358c76.782,7.509,145.116,39.611,195.24,91.237,32.665,33.792,53.128,71.526,61.951,114.328,3.755,17.459,3.191,58.948-.751,77.908-8.823,40.362-25.156,73.215-52.753,105.317-15.394,18.022-18.585,28.535-18.4,59.886,0,22.715,3.755,41.864,11.639,59.511,2.065,4.693,3.567,9.011,3.191,9.387-1.126.939-26.095-8.072-36.044-13.141-10.138-5.256-24.217-15.394-42.24-30.976-13.141-11.264-17.459-12.015-34.918-6.007-22.152,7.7-65.518,15.957-89.923,17.271l-11.264.563L647.6,33c-5.82-60.074-37.171-122.025-84.479-166.33l-15.957-14.831H797.408l6.007-5.444c5.069-4.506,6.2-6.758,6.2-13.329s-1.126-8.823-6.2-13.329l-6.007-5.444H489.9l-12.953-5.82C445.225-205.8,401.108-218,372.2-220.44c-23.279-2.065-22.34-1.314-20.838-13.7,5.82-50.124,36.044-104,78.847-141.549C491.782-429.385,576.073-455.1,662.429-446.656ZM367.5-183.082c123.9,14.831,217.58,93.678,240.484,202.937,3,14.455,3,60.262,0,76.031-13.892,72.84-65.33,137.795-138.17,174.214-72.276,36.044-167.268,41.864-252.123,15.206-24.781-7.7-27.784-7.509-41.676,4.318-18.022,15.582-32.1,25.719-42.24,30.976-9.95,5.069-34.918,14.08-36.044,13.141-.375-.375,1.126-4.693,3.191-9.387,7.885-17.647,11.639-36.8,11.639-59.511.188-31.351-3-41.864-18.4-59.886C66.571,172.857,50.238,140,41.415,99.642c-3.942-18.961-4.506-60.449-.751-77.908C49.487-21.07,69.95-58.8,102.615-92.6,168.7-160.742,268.194-194.909,367.5-183.082Z" transform="translate(0 0)" fill="#00296b"/><path d="M258.015-384.239C252.007-381.8,246-373.162,246-367.155c0,7.509,8.636,16.52,17.084,17.834,5.82.939,7.885.188,13.141-4.506s6.383-6.946,6.383-13.517-1.126-8.823-6.2-13.329C270.217-386.116,265.149-387.242,258.015-384.239Z" transform="translate(215.369 87.767)" fill="#00296b"/><path d="M298.015-384.123C292.007-381.682,286-373.047,286-367.039c0,3.379,2.065,7.7,5.444,11.452l5.444,6.2,125.029.563,124.841.375,6.2-5.444c5.069-4.506,6.2-6.758,6.2-13.329s-1.126-8.823-6.2-13.329L546.946-386l-122.588.188C357.15-385.812,300.08-385.061,298.015-384.123Z" transform="translate(250.462 87.652)" fill="#00296b"/><path d="M91.786-224.382C80.147-219.5,76.58-203.731,85.4-195.1a26.583,26.583,0,0,0,11.639,6.007c6.007.939,7.7.188,13.517-5.632,8.823-8.823,9.011-16.145.188-24.968C104.364-226.071,99.3-227.385,91.786-224.382Z" transform="translate(70.152 228.093)" fill="#00296b"/><path d="M131.779-224.31a18.2,18.2,0,0,0-10.934,13.225,18.2,18.2,0,0,0,4.927,16.437l5.069,5.256,124.841.563,124.653.375,6.2-5.444c5.069-4.506,6.2-6.758,6.2-13.329s-1.126-8.823-6.2-13.329L380.523-226l-122.588.188C190.727-225.812,133.844-225.061,131.779-224.31Z" transform="translate(105.252 228.021)" fill="#00296b"/><path d="M91.779-164.31a18.2,18.2,0,0,0-10.934,13.225,18.2,18.2,0,0,0,4.927,16.437l5.069,5.256,162.387.563,162.2.375,6.2-5.444c5.069-4.506,6.2-6.758,6.2-13.329s-1.126-8.823-6.2-13.329L415.615-166l-160.135.188C167.622-165.812,93.844-165.061,91.779-164.31Z" transform="translate(70.159 280.66)" fill="#00296b"/></g></g></svg>