<svg xmlns="http://www.w3.org/2000/svg" width="479.504" height="327.942" viewBox="0 0 479.504 327.942">
  <g id="letter" transform="translate(-16 424.94)">
    <path id="Path_2" data-name="Path 2" d="M61-423.4A58.132,58.132,0,0,0,17.5-382c-1.3,4.7-1.5,23.2-1.5,120.9,0,102,.2,116,1.6,121.5,5.1,19.8,23.1,36.9,43.3,41.2C66.4-97.3,98-97,255.5-97c206.6,0,194.9.3,208.3-6.2,8.5-4.1,20.4-15.8,25-24.4,7.1-13.6,6.7-6.1,6.7-133.4s.4-119.8-6.7-133.4c-4.8-9.1-15.9-19.8-25-24.1-14.4-6.9-1.5-6.5-208.8-6.4C98.1-424.9,66.4-424.6,61-423.4Zm392.2,25.2c9.3,4.5,17.1,14,18,21.7.3,2.7-2,4.1-107.2,62.7-59.1,33-107.9,60-108.5,60-1,0-214.4-118.8-215.8-120.1-.4-.4.2-3.3,1.3-6.5,3.6-9.5,13.5-18.1,23.7-20.5,2.2-.5,84.7-.8,192.8-.8l189,.2ZM144.6-288.8c100.4,56.1,106.2,59.2,110.9,59.2,4.8,0,10.1-2.9,110.9-59.2C424.7-321.4,472.5-348,472.7-348s.2,45.1.1,100.2l-.3,100.3-2.3,5.8c-3,7.3-10.4,14.9-17.9,18.5l-5.8,2.7h-190c-148.1,0-190.9-.3-194.1-1.2-9.2-2.9-18.2-11.5-22.2-21.4-1.6-4.1-1.7-12-2-104.7-.1-55.1-.1-100.2.1-100.2C38.6-348,86.4-321.4,144.6-288.8Z" fill="#00296b"/>
  </g>
</svg>
