<svg xmlns="http://www.w3.org/2000/svg" xmlns:xlink="http://www.w3.org/1999/xlink" width="960" height="960" viewBox="0 0 960 960"><defs><clipPath id="b"><rect width="960" height="960"/></clipPath></defs><g id="a" clip-path="url(#b)"><g transform="translate(542.513 530.616)"><path d="M567.4-511.211a469.613,469.613,0,0,0-57.252,8.635A362.806,362.806,0,0,0,332.574-404.4c-56.5,57.064-89.539,121.637-104.368,203.667-1.5,9.2-2.44,29.1-2.253,58.191,0,40.546.375,46.177,5.068,68.89,12.389,59.692,39.607,117.132,77.15,162.746l10.7,13.14-13.891,13.7-13.7,13.891-9.573-6.382c-18.208-12.389-40.546-12.952-60.819-2.065q-8.729,4.787-110.938,107.371C-3.994,343.066.511,337.434.511,363.339c0,20.085,6.007,30.972,29.658,54.812C50.818,438.611,62.456,445.744,78.787,448c11.826,1.689,26.843-2.253,38.105-9.761C130.971,428.85,323,235.695,327.881,225.746c9.761-19.522,8.635-41.86-3-59.129l-6.382-9.573,13.7-13.7,13.7-13.7L359.6,140.9c47.679,38.856,101.928,64.01,166.876,77.337,17.645,3.754,26.092,4.13,66.262,4.317,50.119,0,64.573-2.065,105.119-14.078,200.476-59.5,310.475-274.622,241.961-473.034-44.112-127.456-158.992-223-292.08-243.087C628.407-510.46,581.479-512.525,567.4-511.211ZM633.476-470.1c112.439,14.829,208.548,84.47,256.039,185.835,46.177,98.549,40.921,214.742-14.078,307.66A332.346,332.346,0,0,1,636.854,182.384c-21.211,3-70.392,3-90.1,0C454.962,168.306,376.874,120.44,323,45.543,308.359,25.27,288.649-13.587,280.39-38.365A329.967,329.967,0,0,1,309.86-312.8C377.061-424.863,504.705-486.808,633.476-470.1ZM258.24,154.791c7.7,4.13,35.665,33.6,36.979,39.232a23.937,23.937,0,0,1,0,10.324C293.9,209.978,103.753,402.007,94.93,406.7c-11.638,6.007-15.768,4.13-36.6-16.706-18.771-18.771-19.334-19.71-19.334-27.594v-8.259l97.235-97.422c53.31-53.686,99.675-99.112,102.678-100.989C245.663,151.412,251.294,151.224,258.24,154.791Z" transform="translate(-543 -19)" fill="#00296b"/><path d="M423.84-412.409c-6.945,6.945-12.577,13.328-12.577,14.266s4.505,6.382,9.949,12.2c19.334,21.024,40.358,57.44,49.744,86.535a261.8,261.8,0,0,1,6.007,137.593A255.771,255.771,0,0,1,421.775-54.63L410.7-41.866,424.215-28.35l13.515,13.328L447.3-25.347c78.464-84.283,97.235-213.991,46.365-320.236a299.329,299.329,0,0,0-42.986-65.511c-6.382-7.321-12.2-13.328-12.764-13.7C437.167-424.986,430.785-419.542,423.84-412.409Z" transform="translate(-183.195 57.146)" fill="#00296b"/></g></g></svg>