<svg xmlns="http://www.w3.org/2000/svg" xmlns:xlink="http://www.w3.org/1999/xlink" width="960" height="960" viewBox="0 0 960 960"><defs><clipPath id="b"><rect width="960" height="960"/></clipPath></defs><g id="a" clip-path="url(#b)"><g transform="translate(25.992 512)"><path d="M258.689-507.311l-4.689,4.5V-340l4.689,4.314a14.718,14.718,0,0,0,20.632,0L284.01-340V-502.809l-4.689-4.5A14.631,14.631,0,0,0,269.005-512,14.63,14.63,0,0,0,258.689-507.311Z" transform="translate(194.44 0)" fill="#00296b"/><path d="M195.689-465.311l-4.689,4.5v84.029l4.689,4.314a16.267,16.267,0,0,0,10.316,4.314,16.267,16.267,0,0,0,10.316-4.314l4.689-4.314v-84.029l-4.689-4.5A14.63,14.63,0,0,0,206.005-470a14.631,14.631,0,0,0-10.316,4.689Z" transform="translate(139.274 36.777)" fill="#00296b"/><path d="M321.689-465.311l-4.689,4.5v41.827c.188,45.015.375,46.516,9.941,50.08,5.815,2.251,9.941,1.125,15.943-4.126,4.126-3.751,4.126-4.689,4.126-45.766v-42.014l-4.689-4.5A14.63,14.63,0,0,0,332.005-470a14.631,14.631,0,0,0-10.316,4.689Z" transform="translate(249.606 36.777)" fill="#00296b"/><path d="M330.79-397.243A230.477,230.477,0,0,0,164.046-273.451c-16.506,33.2-23.446,63.022-23.446,101.285,0,60.771,20.82,113.476,62.084,156.8,77.277,81.4,199.381,94.532,294.1,32.074,7.315-4.689,21.758-17.068,32.074-27.572,34.512-34.137,55.519-73.9,64.71-122.855,3-15.755,3-61.334,0-76.714C577.062-295.771,520.043-361.981,439.953-388.8,408.067-399.494,363.989-402.87,330.79-397.243Zm70.524,31.136A195.47,195.47,0,0,1,510.1-307.775a195.313,195.313,0,0,1,48.954,87.405c4.314,15.943,4.877,21.945,4.877,48.2,0,26.634-.563,32.261-4.877,48.767-25.321,94.532-111.6,155.3-209.134,147.05-103.536-8.816-183.438-100.91-178-205.008,4.689-90.406,68.461-164.682,157.929-183.626C345.42-368.359,385.372-368.921,401.315-366.108Z" transform="translate(95.142 98.129)" fill="#00296b"/><path d="M285.083-355.836c-6.565,3.564-8.44,7.5-8.44,18.569v10.5l-8.253,3.189C244.194-314.384,226-287.562,226-261.3c0,20.069,13.129,44.265,29.635,54.769,12.379,8.065,18.006,9.941,34.7,11.817,16.693,2.063,23.258,4.689,30.01,12.754a35.172,35.172,0,0,1,5.487,37.856,35.172,35.172,0,0,1-32.309,20.477c-18.756,0-32.449-12.192-35.45-32.074-2.813-17.443-15.755-23.821-26.634-13.13-6.377,6.377-6.752,11.254-2.626,27.384,5.252,20.069,22.883,39.576,41.827,46.141,5.815,2.063,6,2.438,6,12.379,0,12.379,1.876,16.131,9.378,19.319a11.957,11.957,0,0,0,11.254,0c7.5-3,9.378-6.94,9.378-18.756,0-7.315.75-9.753,3.376-10.5,36.575-12.192,57.207-46.7,48.392-81.4-7.5-28.885-28.322-46.891-58.708-50.642-18.381-2.438-20.632-3.189-28.51-8.816C248.133-251.175,256.761-288.5,285.645-296c20.445-5.627,43.327,11.817,43.515,33.2,0,7.878,8.628,17.256,15.943,17.256,6.752,0,15.943-9.378,15.943-16.318,0-10.316-5.815-27.76-12.379-37.513-8.065-11.817-16.693-18.569-30.573-24.2l-10.5-4.314-.563-9c-.563-11.066-3.189-16.318-9.191-19.132C292.21-358.649,289.959-358.462,285.083-355.836Z" transform="translate(169.922 134.936)" fill="#00296b"/><path d="M43.676-165.668a19.169,19.169,0,0,0-4.877,8.253c-2.063,9.378-8.253,279.659-6.565,284.16,3.189,8.628,9.191,9.378,79.527,10.879l65.648,1.313,4.314-4.689q4.5-4.783,5.627-14.63l1.313-9.753,21.57-11.254c32.074-16.506,24.946-17.256,146.3,16.881,55.332,15.568,107.662,29.448,116.29,30.761,17.068,2.438,48.579,1.5,65.648-2.063,31.136-6.377,43.14-12.192,95.283-45.766C825.632-25.37,866.333-51.816,871.023-56.13c6.94-6.565,6.752-14.255-.75-25.509a78.522,78.522,0,0,0-32.824-26.822c-14.443-6.565-40.326-8.253-54.769-3.564-5.252,1.876-38.076,16.693-72.963,33.2C653.448-52.192,646.133-49.191,644.445-52c-14.067-23.821-39.951-42.014-68.273-47.641-4.689-.938-38.638-2.626-75.4-3.751-77.089-2.251-83.279-3.189-114.039-18.756-38.826-19.319-66.4-25.509-107.662-23.821-27.384.938-43.89,4.689-70.149,15.193L192.79-124.4l1.125-13.13c1.5-17.068-1.5-24.758-10.316-27.384-3.376-1.125-35.075-2.626-71.087-3.376C48.178-169.419,47.427-169.419,43.676-165.668ZM162.4-134.72c.188.188-1.313,51.018-3,112.914-1.876,61.9-3.376,116.29-3.376,120.791l-.188,8.253-46.328-1.313c-25.509-.75-46.516-1.5-46.7-1.688-.375-.375,6.19-238.207,6.565-241.208C69.56-137.721,162.029-135.658,162.4-134.72Zm169.371,24.946c10.5,2.626,27.947,9.378,43.14,16.506C410.927-76.2,415.054-75.262,469.072-73.2c101.472,3.939,104.849,4.126,116.665,9.566a71.9,71.9,0,0,1,33.386,32.074c9,18.006,10.5,17.068-27.572,15.755-18.381-.75-57.77-1.876-87.78-2.438-52.893-1.313-54.581-1.125-59.083,2.626-6.377,5.064-6.565,18.006-.375,22.883,5.439,4.5,14.255,5.064,117.6,7.69l86.092,2.063,5.439-6c5.064-5.627,5.439-7.127,4.689-18.194l-.563-12,65.085-30.761C758.484-67.009,791.5-81.639,796-82.765a48.631,48.631,0,0,1,15.568-.563c8.815,1.313,25.7,9.378,24.758,11.817-.563,2.063-255.463,167.12-266.341,172.747a203.039,203.039,0,0,1-23.446,8.628c-15.005,4.5-19.319,5.064-47.454,5.064H468.134l-100.347-28.7C242.119,50.219,237.805,49.656,203.481,66.724c-7.69,3.751-14.067,6.565-14.442,6-.938-.938,3.564-159.055,4.5-159.992,3.376-3.189,27.947-15.193,38.638-18.756a172.974,172.974,0,0,1,99.6-3.751Z" transform="translate(0 300.39)" fill="#00296b"/></g></g></svg>