<svg xmlns="http://www.w3.org/2000/svg" width="450.044" height="511.824" viewBox="0 0 450.044 511.824">
  <g id="save-money" transform="translate(-31.946 512)">
    <path id="Path_11" data-name="Path 11" d="M256.5-509.5l-2.5,2.4v86.8l2.5,2.3a7.847,7.847,0,0,0,11,0l2.5-2.3v-86.8l-2.5-2.4A7.8,7.8,0,0,0,262-512,7.8,7.8,0,0,0,256.5-509.5Z" fill="#00296b"/>
    <path id="Path_12" data-name="Path 12" d="M193.5-467.5l-2.5,2.4v44.8l2.5,2.3a8.673,8.673,0,0,0,5.5,2.3,8.673,8.673,0,0,0,5.5-2.3l2.5-2.3v-44.8l-2.5-2.4A7.8,7.8,0,0,0,199-470,7.8,7.8,0,0,0,193.5-467.5Z" fill="#00296b"/>
    <path id="Path_13" data-name="Path 13" d="M319.5-467.5l-2.5,2.4v22.3c.1,24,.2,24.8,5.3,26.7,3.1,1.2,5.3.6,8.5-2.2,2.2-2,2.2-2.5,2.2-24.4v-22.4l-2.5-2.4A7.8,7.8,0,0,0,325-470,7.8,7.8,0,0,0,319.5-467.5Z" fill="#00296b"/>
    <path id="Path_14" data-name="Path 14" d="M242-398.5a122.879,122.879,0,0,0-88.9,66c-8.8,17.7-12.5,33.6-12.5,54,0,32.4,11.1,60.5,33.1,83.6,41.2,43.4,106.3,50.4,156.8,17.1,3.9-2.5,11.6-9.1,17.1-14.7,18.4-18.2,29.6-39.4,34.5-65.5,1.6-8.4,1.6-32.7,0-40.9-8.8-45.5-39.2-80.8-81.9-95.1C283.2-399.7,259.7-401.5,242-398.5Zm37.6,16.6a104.215,104.215,0,0,1,58,31.1,104.131,104.131,0,0,1,26.1,46.6c2.3,8.5,2.6,11.7,2.6,25.7,0,14.2-.3,17.2-2.6,26-13.5,50.4-59.5,82.8-111.5,78.4-55.2-4.7-97.8-53.8-94.9-109.3,2.5-48.2,36.5-87.8,84.2-97.9C249.8-383.1,271.1-383.4,279.6-381.9Z" fill="#00296b"/>
    <path id="Path_15" data-name="Path 15" d="M257.5-356.8c-3.5,1.9-4.5,4-4.5,9.9v5.6l-4.4,1.7c-12.9,4.9-22.6,19.2-22.6,33.2,0,10.7,7,23.6,15.8,29.2,6.6,4.3,9.6,5.3,18.5,6.3,8.9,1.1,12.4,2.5,16,6.8A18.752,18.752,0,0,1,262-233c-10,0-17.3-6.5-18.9-17.1-1.5-9.3-8.4-12.7-14.2-7-3.4,3.4-3.6,6-1.4,14.6,2.8,10.7,12.2,21.1,22.3,24.6,3.1,1.1,3.2,1.3,3.2,6.6,0,6.6,1,8.6,5,10.3a6.375,6.375,0,0,0,6,0c4-1.6,5-3.7,5-10,0-3.9.4-5.2,1.8-5.6,19.5-6.5,30.5-24.9,25.8-43.4-4-15.4-15.1-25-31.3-27-9.8-1.3-11-1.7-15.2-4.7-12.3-9.3-7.7-29.2,7.7-33.2,10.9-3,23.1,6.3,23.2,17.7,0,4.2,4.6,9.2,8.5,9.2,3.6,0,8.5-5,8.5-8.7,0-5.5-3.1-14.8-6.6-20-4.3-6.3-8.9-9.9-16.3-12.9l-5.6-2.3-.3-4.8c-.3-5.9-1.7-8.7-4.9-10.2C261.3-358.3,260.1-358.2,257.5-356.8Z" fill="#00296b"/>
    <path id="Path_16" data-name="Path 16" d="M38.2-167.2a10.22,10.22,0,0,0-2.6,4.4c-1.1,5-4.4,149.1-3.5,151.5,1.7,4.6,4.9,5,42.4,5.8l35,.7,2.3-2.5q2.4-2.55,3-7.8l.7-5.2,11.5-6c17.1-8.8,13.3-9.2,78,9C234.5-9,262.4-1.6,267-.9c9.1,1.3,25.9.8,35-1.1,16.6-3.4,23-6.5,50.8-24.4,102.3-66,124-80.1,126.5-82.4,3.7-3.5,3.6-7.6-.4-13.6a41.864,41.864,0,0,0-17.5-14.3c-7.7-3.5-21.5-4.4-29.2-1.9-2.8,1-20.3,8.9-38.9,17.7-30,14.2-33.9,15.8-34.8,14.3C351-119.3,337.2-129,322.1-132c-2.5-.5-20.6-1.4-40.2-2-41.1-1.2-44.4-1.7-60.8-10-20.7-10.3-35.4-13.6-57.4-12.7-14.6.5-23.4,2.5-37.4,8.1l-8.6,3.4.6-7c.8-9.1-.8-13.2-5.5-14.6-1.8-.6-18.7-1.4-37.9-1.8C40.6-169.2,40.2-169.2,38.2-167.2Zm63.3,16.5c.1.1-.7,27.2-1.6,60.2-1,33-1.8,62-1.8,64.4L98-21.7l-24.7-.7c-13.6-.4-24.8-.8-24.9-.9-.2-.2,3.3-127,3.5-128.6C52-152.3,101.3-151.2,101.5-150.7Zm90.3,13.3c5.6,1.4,14.9,5,23,8.8,19.2,9.1,21.4,9.6,50.2,10.7,54.1,2.1,55.9,2.2,62.2,5.1A38.336,38.336,0,0,1,345-95.7c4.8,9.6,5.6,9.1-14.7,8.4-9.8-.4-30.8-1-46.8-1.3-28.2-.7-29.1-.6-31.5,1.4-3.4,2.7-3.5,9.6-.2,12.2,2.9,2.4,7.6,2.7,62.7,4.1l45.9,1.1,2.9-3.2c2.7-3,2.9-3.8,2.5-9.7l-.3-6.4,34.7-16.4c19.1-9.1,36.7-16.9,39.1-17.5a25.928,25.928,0,0,1,8.3-.3c4.7.7,13.7,5,13.2,6.3-.3,1.1-136.2,89.1-142,92.1a108.251,108.251,0,0,1-12.5,4.6c-8,2.4-10.3,2.7-25.3,2.7H264.5L211-32.9c-67-19.2-69.3-19.5-87.6-10.4-4.1,2-7.5,3.5-7.7,3.2-.5-.5,1.9-84.8,2.4-85.3,1.8-1.7,14.9-8.1,20.6-10A92.221,92.221,0,0,1,191.8-137.4Z" fill="#00296b"/>
  </g>
</svg>
