<svg xmlns="http://www.w3.org/2000/svg" width="118.626" height="127.567" viewBox="0 0 118.626 127.567">
  <g id="worker_1_" data-name="worker (1)" transform="translate(-17.943)">
    <g id="Group_3" data-name="Group 3" transform="translate(33.932 81.38)">
      <path id="Path_17" data-name="Path 17" d="M108.752,326.624h-7.722a48.619,48.619,0,0,0-18.6,44.279H93.565l1.869-1.751L97.3,370.9h11.45l16.688-23.459Z" transform="translate(-82.115 -326.624)" fill="#46505a"/>
      <path id="Path_18" data-name="Path 18" d="M280.41,326.624h-7.722L256,347.444,272.688,370.9h11.45l1.869-2.25,1.869,2.25h11.136A48.62,48.62,0,0,0,280.41,326.624Z" transform="translate(-212.676 -326.624)" fill="#46505a"/>
    </g>
    <path id="Path_19" data-name="Path 19" d="M189.022,326.624V370.9h10.21l6.478-5.357,6.478,5.357H222.4V326.624Z" transform="translate(-128.454 -245.244)" fill="#eeeced"/>
    <path id="Path_20" data-name="Path 20" d="M242.956,449.689,240.9,431.554h-8.844L230,449.689Z" transform="translate(-159.222 -324.03)" fill="#bb3649"/>
    <path id="Path_21" data-name="Path 21" d="M93.444,7.341C65.319,7.341,42.133,28.07,39.5,54.489L45.268,67h97.918l4.2-12.514C144.756,28.07,121.569,7.341,93.444,7.341Z" transform="translate(-16.188 -5.512)" fill="#924436"/>
    <path id="Path_22" data-name="Path 22" d="M84.793,10.019C60.691,13.757,41.857,32.847,39.5,56.5l4.813,10.447C47.183,42.2,62.855,21.126,84.793,10.019Z" transform="translate(-16.188 -7.523)" fill="#7d3a2e"/>
    <path id="Path_23" data-name="Path 23" d="M244.095,389.547l-1.371-9.474h-8.731l-1.4,9.474a2.988,2.988,0,0,0,1.327,3.352l2.87,1.744a2.989,2.989,0,0,0,3.1,0l2.87-1.744A2.988,2.988,0,0,0,244.095,389.547Z" transform="translate(-161.09 -285.376)" fill="#d55c64"/>
    <path id="Path_24" data-name="Path 24" d="M154.312,171.119l-3.183-5.42-.044.045-.4-.157s-14.667-3.7-14.667-20.747a143.045,143.045,0,0,1-32.21,3.488A143.043,143.043,0,0,1,71.6,144.84c0,17.045-14.667,20.747-14.667,20.747l-.4.154-.041-.043-3.183,5.42,5.156,4.923h0c5.94,18.576,23.992,32.086,45.345,32.086s39.406-13.512,45.344-32.089v0Z" transform="translate(-26.555 -108.752)" fill="#fbc4ac"/>
    <path id="Path_25" data-name="Path 25" d="M208.744,256.525c11.769,6.72,15.681.913,15.681.913-6.472-1,0-15.93-15.681-11.647-15.681-4.282-9.209,10.652-15.681,11.647C193.063,257.437,196.975,263.245,208.744,256.525Z" transform="translate(-131.488 -183.972)" fill="#c36e5c"/>
    <g id="Group_4" data-name="Group 4" transform="translate(19.812 46.303)">
      <path id="Path_26" data-name="Path 26" d="M440.366,185.842a60.933,60.933,0,0,1-.4,10.643h0a43.5,43.5,0,0,1-1.973,10.343,10.566,10.566,0,1,0,2.377-20.986Z" transform="translate(-335.202 -185.842)" fill="#e3b098"/>
      <path id="Path_27" data-name="Path 27" d="M45.181,199.382h0a63.782,63.782,0,0,1-1.809-7.012,20.671,20.671,0,0,1-7.359,4l-.4.154-.041-.043h0a60.942,60.942,0,0,1-.4-10.642,10.566,10.566,0,1,0,2.375,20.986h0c5.62,17.575,22.083,30.613,41.925,31.968A67.3,67.3,0,0,1,45.181,199.382Z" transform="translate(-25.445 -185.843)" fill="#e3b098"/>
    </g>
    <path id="Path_28" data-name="Path 28" d="M219.078,250.127c-1.047-.161-1.458-1.123-2.161-3.933-.637-2.545-1.43-5.712-4.315-7.4-2.26-1.323-5.367-1.455-9.489-.4-4.122-1.054-7.229-.922-9.489.4-2.885,1.688-3.678,4.855-4.315,7.4-.7,2.81-1.114,3.773-2.161,3.933a1.869,1.869,0,0,0-1.266,2.891c.13.192,2.213,3.156,7.255,3.156,2.535,0,5.817-.749,9.975-2.977,4.159,2.228,7.44,2.977,9.975,2.977,5.041,0,7.126-2.964,7.255-3.156a1.869,1.869,0,0,0-1.266-2.891Zm-15.039-.688a1.879,1.879,0,0,0-1.853,0c-5.9,3.372-9.421,3.307-11.327,2.665a12.257,12.257,0,0,0,2.075-5c.539-2.153,1.048-4.187,2.577-5.082,1.416-.828,3.808-.791,7.109.11a1.865,1.865,0,0,0,.985,0c3.3-.9,5.693-.939,7.109-.11,1.529.895,2.038,2.929,2.577,5.082a12.257,12.257,0,0,0,2.076,5C213.46,252.745,209.943,252.81,204.039,249.439Z" transform="translate(-125.857 -178.469)"/>
    <path id="Path_29" data-name="Path 29" d="M116.737,15.709a1.869,1.869,0,1,0-2.584,2.7,49.8,49.8,0,0,1,14.64,26.931,12.306,12.306,0,0,0-2.464-.7c-.919-.163-1.924-.35-2.661.373a1.868,1.868,0,0,0-.557,1.446c.075,1.253.071,2.5.071,3.759,0,.018,0,.035,0,.053-.03,1.626-.126,3.1-.223,4.223a19.459,19.459,0,0,1-3.382-1.819,18.8,18.8,0,0,1-8.046-13.38s0,0,0-.007a25.933,25.933,0,0,1-.194-3.156A1.882,1.882,0,0,0,109,34.318a129.931,129.931,0,0,1-19.152,2.9c-3.816.319-8.059.531-12.594.531a142.706,142.706,0,0,1-31.745-3.43,1.889,1.889,0,0,0-2.333,1.81,25.151,25.151,0,0,1-.195,3.164,18.328,18.328,0,0,1-7.83,13.2,19.189,19.189,0,0,1-3.6,2c-.016-.185-.032-.38-.048-.583,0-.007,0-.015,0-.022a56,56,0,0,1-.1-7.432,1.869,1.869,0,0,0-.557-1.446,2.794,2.794,0,0,0-2.615-.381l-.049.008a12.327,12.327,0,0,0-2.464.7,49.714,49.714,0,0,1,16.242-28.4,53.838,53.838,0,0,1,66.609-3.173,1.869,1.869,0,1,0,2.185-3.032,57.574,57.574,0,0,0-71.262,3.4A53.256,53.256,0,0,0,21.529,48.172a12.411,12.411,0,0,0,8.85,21.138c.074,0,.148,0,.223,0A46.962,46.962,0,0,0,43.234,88.215,50.14,50.14,0,0,0,32.387,125.9a1.869,1.869,0,0,0,1.858,1.669h86.022a1.869,1.869,0,0,0,1.858-1.669,50.139,50.139,0,0,0-10.847-37.683,46.956,46.956,0,0,0,12.63-18.909c.075,0,.15,0,.224,0a12.411,12.411,0,0,0,8.851-21.138A53.331,53.331,0,0,0,116.737,15.709ZM21.681,56.874a8.75,8.75,0,0,1,5.906-8.235c-.014,1.263.019,2.525.079,3.786a64.329,64.329,0,0,0,1.774,13.1A8.711,8.711,0,0,1,21.681,56.874Zm24.4,33.76A49.768,49.768,0,0,0,58.7,97.818V123.83H49.118V108.575a1.869,1.869,0,1,0-3.737,0V123.83H35.95A46.356,46.356,0,0,1,46.084,90.634ZM62.437,99.11c.574.173,1.152.334,1.733.487a51.048,51.048,0,0,0,5.953,1.194l-.449,3.047a5.208,5.208,0,0,0,.789,4.029,4.831,4.831,0,0,0,.4.486L69.109,123.83H62.437Zm12.3,2.11c1.751.088,3.547-.014,5.321-.014.207-.011.414-.021.62-.035,0,0,.506,3.464.527,3.54a1.143,1.143,0,0,1-.5,1.256l-2.87,1.745a1.114,1.114,0,0,1-1.163,0l-2.87-1.745a1.124,1.124,0,0,1-.5-1.256c.021-.075.536-3.539.536-3.539C74.141,101.19,74.438,101.2,74.736,101.22Zm12.637-.937q2.377-.475,4.7-1.174v24.72H85.4l-1.755-15.478c-.008-.083.35-.415.4-.486a4.958,4.958,0,0,0,.93-2.839c0-.4-.582-4.237-.582-4.237Q85.892,100.581,87.372,100.283ZM72.87,123.83l1.491-13.151.371.226a4.9,4.9,0,0,0,5.046,0l.372-.226,1.491,13.151Zm45.692,0h-9.432V108.575a1.869,1.869,0,1,0-3.737,0V123.83H95.812V97.818a49.66,49.66,0,0,0,11.131-6.068l.062-.045q.719-.523,1.421-1.071A46.354,46.354,0,0,1,118.562,123.83ZM85.9,96.756a47.67,47.67,0,0,1-17.293,0c-16.6-3.071-30.121-14.8-34.971-30.179a41.665,41.665,0,0,1-1.7-8.236,23.4,23.4,0,0,0,5.342-2.769l.01-.006.021-.015a22.7,22.7,0,0,0,9.523-17.1,146.672,146.672,0,0,0,22.65,2.837l.114.005q3.83.185,7.665.19t7.665-.19l.114-.005a146.7,146.7,0,0,0,22.65-2.837,22.822,22.822,0,0,0,9.524,17.1l.026.018a23.393,23.393,0,0,0,5.344,2.771q-.115,1.116-.289,2.225a41.594,41.594,0,0,1-1.412,6C116.03,81.949,102.5,93.687,85.9,96.756ZM125.07,65.523a45.459,45.459,0,0,0,1.033-5.185c0-.023.006-.046.009-.069a79.241,79.241,0,0,0,.814-11.629,8.7,8.7,0,0,1-1.856,16.883Z"/>
    <path id="Path_30" data-name="Path 30" d="M133.151,251.308h-7.366a1.869,1.869,0,0,0,0,3.737h7.366a1.869,1.869,0,1,0,0-3.737Z" transform="translate(-79.57 -188.693)" fill="#ff8087"/>
    <path id="Path_31" data-name="Path 31" d="M140.568,208.13a1.869,1.869,0,0,0,1.869-1.869v-5.48a1.869,1.869,0,0,0-3.737,0v5.48A1.869,1.869,0,0,0,140.568,208.13Z" transform="translate(-90.669 -149.353)"/>
    <path id="Path_32" data-name="Path 32" d="M360.178,208.13a1.869,1.869,0,0,0,1.869-1.869v-5.48a1.869,1.869,0,1,0-3.737,0v5.48A1.869,1.869,0,0,0,360.178,208.13Z" transform="translate(-255.562 -149.353)"/>
    <path id="Path_33" data-name="Path 33" d="M352.754,251.308h-7.366a1.869,1.869,0,1,0,0,3.737h7.366a1.869,1.869,0,1,0,0-3.737Z" transform="translate(-244.458 -188.693)" fill="#ff8087"/>
  </g>
</svg>
