<svg xmlns="http://www.w3.org/2000/svg" width="512.004" height="384.085" viewBox="0 0 512.004 384.085">
  <g id="envelope" transform="translate(0.002 448.035)">
    <path id="Path_54" data-name="Path 54" d="M32.5-446.6a41.218,41.218,0,0,0-18.2,9.9c-6.9,6.4-8.6,10.8-6.1,16.1.6,1.4,23,21.1,49.7,43.8,64.3,54.6,141.7,120.9,166.9,143,17.6,15.4,21.1,18,25.8,19.4,4.9,1.4,5.9,1.4,10.7,0,5.8-1.7,5.6-1.5,33.7-26.1,23.6-20.7,93.1-80.2,159.1-136.3,26.7-22.7,49.1-42.4,49.7-43.8,2.5-5.3.8-9.7-6.1-16.1a41.794,41.794,0,0,0-19.5-10.2C470.2-448.6,39.4-448.3,32.5-446.6Z" fill="#00296b"/>
    <path id="Path_55" data-name="Path 55" d="M4.7-383.9C-.2-381,0-387,0-240.7,0-153.2.4-102.4,1-99A43.162,43.162,0,0,0,34.9-65c7.4,1.4,434.8,1.4,442.2,0A43.162,43.162,0,0,0,511-99c.6-3.4,1-54.2,1-141.7,0-147,.2-140.5-4.9-143.3-2.8-1.5-9.3-1.2-11.7.4-3.3,2.3-136.8,116.1-168.3,143.5-15.6,13.5-32.5,28.1-37.5,32.5-14.2,12.3-26.3,16.8-39.5,14.7-12.5-2-16-4.3-43.1-28.1C175.8-248.4,27.1-375.4,17.6-382.8,14.5-385.2,7.9-385.8,4.7-383.9Z" fill="#00296b"/>
  </g>
</svg>
