<svg xmlns="http://www.w3.org/2000/svg" width="511.764" height="511.438" viewBox="0 0 511.764 511.438">
  <g id="phone-call" transform="translate(-0.162 511.837)">
    <path id="Path_56" data-name="Path 56" d="M248.3-510.1c-4.5,2.1-8.7,7.6-9.8,12.8-1.4,6.8,3.5,16.2,10,18.8,1.6.7,8.6,1.6,15.5,2,33.5,1.8,60.1,8.6,88.5,22.4A218.566,218.566,0,0,1,454.1-352.5c13.8,28.4,20.6,55,22.4,88.5.8,14,1.8,17.4,6.4,21.3a17.388,17.388,0,0,0,27.3-6.1c1.9-4.2,2-5.9,1.4-18.2-1.2-25.8-6.8-53.9-15.2-76.9-4.4-12-16.7-37.2-23-47.1a271.161,271.161,0,0,0-76.9-78.8c-13.2-8.8-39-21.8-54-27.1a261.05,261.05,0,0,0-75.9-14.7C254-512.1,252.1-511.9,248.3-510.1Z" fill="#00296b"/>
    <path id="Path_57" data-name="Path 57" d="M60.6-486c-29.2,13.8-54,26-55.3,27.2a20.672,20.672,0,0,0-3.9,6.5c-1.5,3.9-1.6,5.5-.5,14.6,5.7,46.8,20.4,96.3,42,141.2,37.1,77,96.9,148.4,169.6,202.6,66.9,49.8,141.4,81.2,218.7,92C448.8.6,452.6.2,458-4.8c2.1-1.9,10.4-18.5,28.1-56.2,25.1-53.4,25.1-53.4,24.7-59.2-.3-4.5-1-6.5-3.4-9.3-2.4-2.9-45.5-31.3-98.2-64.7-6.6-4.3-11.7-5.5-17.9-4.3-3.3.6-7,3.9-26.8,23.5-12.6,12.6-24.3,23.4-26,24-6.6,2.5-20.1.5-39.7-6-31.5-10.5-59.1-28.1-85.9-54.9-15.5-15.5-21.8-23-31.8-37.9-15.4-22.9-26.8-50.6-30.4-73.7-2.3-14.5-2.9-13.6,23.8-40.5,20-20.2,23.4-24,24-27.3,1.6-8.6,1.3-9.3-32.6-62-17.7-27.6-33.2-51.3-34.3-52.6-2.9-3.3-7.7-5.1-13.3-5.1C114.2-510.9,106.2-507.5,60.6-486Z" fill="#00296b"/>
    <path id="Path_58" data-name="Path 58" d="M250.2-422.6a17.234,17.234,0,0,0-6.3,28.7c4.3,4.3,9.1,5.9,18.1,5.9,14.7,0,37.6,5.7,52.2,13.1a136.06,136.06,0,0,1,60.7,60.7c7.4,14.6,13.1,37.5,13.1,52.2,0,9,1.6,13.8,5.9,18.1,7.4,7.5,18.2,7.1,25.5-.8,3.7-3.9,4.9-9.9,4.2-19.5-2.7-33.9-11.2-59.2-28.5-84.9-28.4-42.3-72.6-68.6-124-73.9C258.4-424.2,254.4-424.2,250.2-422.6Z" fill="#00296b"/>
  </g>
</svg>
