<svg xmlns="http://www.w3.org/2000/svg" width="405.176" height="511.4" viewBox="0 0 405.176 511.4">
  <g id="graduated" transform="translate(-53.324 511.9)">
    <path id="Path_1" data-name="Path 1" d="M174.6-487c-42.9,13.7-79.1,25.7-80.4,26.7A17.264,17.264,0,0,0,88-447.7c0,3.7,3,10.9,5,12.2.6.4,1,8.3,1,21.1V-394H91.6c-2.9,0-8.2,3.5-11,7.3-1.9,2.5-2.2,4.8-2.7,19-.6,12.6-1.7,22-5.3,42.5-2.5,14.5-4.6,27.8-4.6,29.5,0,5.1,3.9,10.9,9,13.5,4.2,2.1,5.6,2.2,24.5,2.2,22.5,0,26.1-.9,30.5-7,3.7-5.2,3.5-9.6-1.6-38.5-3.6-21-4.8-30.5-5.3-42.7-.5-13.8-.9-16-2.7-18.5-2.8-3.8-8.1-7.3-11-7.3H109v-18c0-15.9.2-18,1.6-18,2,0,31.2,4.9,33.7,5.6,1.5.5,1.7,2.2,1.7,16.2,0,17.4.8,21.7,4.5,25.2l2.5,2.3v67.3l2.9,4.6a17.349,17.349,0,0,0,8.1,7c3.2,1.4,5.2,3,5.5,4.3,4.5,23.4,12.4,38.6,27.4,52.8,6.7,6.3,7.1,6.9,7.1,11.1v4.3l-32.8,21.5-32.8,21.4-18,5.3c-19.5,5.8-29.7,10.5-39,17.9-11.8,9.5-21.5,24.7-25.6,40.1-1.6,6.2-2,11-2.1,25.8-.2,17.5-.1,18.3,2,20.4,2.6,2.7,7.5,2.9,10.1.5,1.7-1.5,2-3.7,2.5-19.9.4-15.9.8-19.2,3.1-26.3A61.149,61.149,0,0,1,97.2-156c5.9-3.9,13.7-6.8,33.8-12.5l9.6-2.7,56.5,33.6c32.2,19.1,57.6,33.6,59,33.6,1.3,0,10.9-5.1,21.4-11.4,10.4-6.2,31.4-18.6,46.5-27.6s32-19,37.4-22.3l9.9-5.9,8.1,2.2c17.6,4.8,29.5,9.1,35.5,13a63.136,63.136,0,0,1,25.8,33.4l2.7,8.1.4,41.1c.4,44.1.2,46.9-4.5,52.5C434.8-15.6,432-15,412-15H394V-31.5c0-17.5-.6-20.6-4.7-22.4-3.4-1.6-4.7-1.4-7.7,1l-2.6,2V-15H133V-50.9l-2.6-2c-3-2.4-4.3-2.6-7.7-1-4.1,1.8-4.7,4.9-4.7,22.4V-15H100c-20,0-22.8-.6-27.3-5.9C69.1-25.2,68-29.8,68-40.8c0-7.9-.3-9.5-2-11.2-2.7-2.7-8.1-2.6-10.6.1-2.7,3-2.8,22.9-.1,30.7C57.8-14.2,65.4-6,72.2-2.9L77.5-.5h357l5.3-2.4c6.8-3.1,14.4-11.3,16.9-18.3,1.6-4.8,1.8-9.2,1.8-48.8,0-49.6-.3-52.1-7.9-67.7-7.5-15.2-18.7-26.7-33.1-34.1-3.8-1.9-15.4-6.1-25.6-9.2l-18.7-5.7L340.6-208,308-229.3v-4.4c0-4.1.4-4.7,7.1-11,15.1-14.3,22.8-29.2,27.5-53a3.824,3.824,0,0,1,2.7-2.8c4.4-1.4,9.7-5.8,11.7-9.9,1.9-4,2-6.1,2-37.2v-33.1l2.5-2.3c3.7-3.5,4.5-7.8,4.5-25.2,0-14,.2-15.7,1.8-16.2.9-.3,11.4-2.1,23.1-4.1,11.8-2,23-4.3,24.8-5.2,5.1-2.4,8.7-9.1,8.1-15.2-.5-5.4-3.6-10.4-7.6-12.5-5.3-2.7-157.6-50.6-160.6-50.5C253.9-511.9,217.4-500.6,174.6-487Zm157.2,14.1c41.7,13.2,76.1,24.4,76.6,24.9,1.2,1.2-.4,1.5-26.9,5.9-21.1,3.5-24.8,3.9-31,3.1-15-2-19.5-.6-19.5,5.9,0,4.9,2.7,7,10.5,8.1,3.9.5,7.6,1,8.3,1,.9,0,1.2,3.8,1.2,15.5V-393H161v-15.5c0-8.5.4-15.5.9-15.5s19.1-2.3,41.3-5c46.7-5.9,56.1-6.2,82.8-2.9,19.6,2.4,22,2.2,24.2-2.5,1.5-3.4-.5-8.1-4-9.5-4.9-1.9-37.3-5.2-50.6-5.2-9.7,0-24.6,1.5-57.2,5.5l-44.2,5.5-25.1-4.2c-22.5-3.9-27.4-5-26-6,.5-.4,151.1-48.4,152.2-48.6C255.8-496.9,290.2-486.2,331.8-472.9ZM110-372v7H93v-14h17Zm75,3.4c0,9.3,0,9.5-3.1,12-2.5,2.1-4.1,2.6-8.5,2.6H168v-24h17Zm127.2,1.9c.3,10.6.5,11.7,3.3,16.3,4.6,7.3,10.6,10.6,20.5,11.2l8,.5V-328c0,11.8-.1,12-6.6,13.8-6.4,1.9-8.2,4.6-9.9,15-2.9,17.9-8.6,29.2-21,41.8-6.6,6.7-9.7,8.9-17.5,12.7-12.7,6.3-20.1,8.1-33,8.1s-20.3-1.8-32.8-8c-7.6-3.7-10.9-6.1-17.5-12.7-12.5-12.6-18.3-23.9-21.2-41.9-1.7-10.4-3.5-13.1-9.9-15-6.5-1.8-6.6-2-6.6-13.8v-10.7l8-.5c9.9-.6,15.9-3.9,20.5-11.2,2.8-4.6,3-5.7,3.3-16.3l.4-11.3H311.8Zm31.8.7v12h-5.4c-4.4,0-6-.5-8.5-2.6-3.1-2.5-3.1-2.7-3.1-12V-378h17ZM111.5-347.8c1,4.8,8.5,49.4,8.5,51,0,1.7-1.5,1.8-17.9,1.8-10.2,0-18.2-.4-18.6-.9-.5-.9,4.8-34.8,7.6-48.9l1-5.2h9.5C110.5-350,111-349.9,111.5-347.8ZM229.9-225.4c19.1,6.3,40.1,5.2,61.5-3.2,1.8-.7,1.9-.2,1.3,12.2-.4,7.1-1.4,16.5-2.4,20.9l-1.8,8-7,1.3c-4.1.8-14.5,1.3-25.5,1.3s-21.3-.5-25.4-1.3c-6.5-1.2-7-1.5-7.8-4.3a149.021,149.021,0,0,1-3.8-29.9c0-8,.2-8.8,1.8-8.1C221.7-228.2,225.8-226.7,229.9-225.4Zm-24,26.6c3.4,19.7,11.8,42,21.5,57.2,2,3.2,3.6,5.9,3.4,6.1s-14.2-8-31.3-18.2c-17-10.1-33.8-20.1-37.2-22.1-4-2.3-5.9-4-5.3-4.6,1.4-1.4,46.4-30.5,46.7-30.2C203.9-210.5,204.9-205.2,205.9-198.8ZM332-195.7c11.8,7.6,22.1,14.4,22.7,15.1,1,.9-7.1,6.1-36,23.3-20.4,12.1-37.3,22-37.5,21.8s1.6-3.4,3.9-7.1c9.8-16,17.6-36.6,20.5-54.2,2.4-14.5,2.3-14.4,3.7-13.6C310-210,320.2-203.4,332-195.7Zm-76,26.2c4.7,0,12.7-.3,17.8-.7l9.2-.8-4.6,9.3c-4.8,9.6-21.2,35.7-22.4,35.7s-17.6-26.1-22.4-35.7L229-171l9.2.8C243.3-169.8,251.3-169.5,256-169.5Z" fill="#00296b"/>
  </g>
</svg>
