<svg xmlns="http://www.w3.org/2000/svg" width="511.37" height="459.743" viewBox="0 0 511.37 459.743">
  <g id="speech-bubble" transform="translate(-0.512 485.909)">
    <path id="Path_3" data-name="Path 3" d="M316.1-484.9a213.677,213.677,0,0,0-39.1,8.4c-13.9,4.5-36.2,15.8-48,24.2-11.7,8.5-28.6,25.2-36.3,36-12.5,17.6-21.3,38.5-24.3,57.4-.9,5.7-1.8,10.9-2,11.6-.4,1.5-1.7,1.8-15.1,3.3-33.1,3.7-69.1,18.6-95.4,39.6-29,23.1-47.6,53.1-54,86.9-2.2,11.4-1.7,36,.9,48.2,4.9,22.9,14.7,42.9,30.3,62,5.4,6.6,6,7.6,6.9,14.2A64.651,64.651,0,0,1,37.8-68a74.958,74.958,0,0,1-9,17.6c-1.3,1.7-3.8,5-5.5,7.4-3.5,4.5-4,7.3-2.2,11.3,2.6,5.7,9.3,6.8,25.5,4.2C67.4-30.9,83.2-38,100.1-51.6l6.7-5.3,6.3,2c11.5,3.4,31.3,6.8,47.7,8.1,35.4,2.7,67.5-3.5,98.7-19.1C277.1-74.8,289.6-83.6,303-97c16-15.9,27.6-33.8,34.8-53.5C341-159,345-176.8,345-182c0-3.7,2.6-5,9.8-5,8.9,0,45.3-7.1,49.3-9.6.5-.3,3.9,1.9,7.6,4.9,17.1,13.7,32.9,20.8,53.7,24.2,16.2,2.6,22.9,1.5,25.5-4.2,1.8-4,1.3-6.8-2.1-11.3-1.8-2.4-4.3-5.7-5.6-7.4-8.8-11.8-13.2-28.5-11.2-42.7.9-6.6,1.5-7.6,6.9-14.2,20.4-25,31.1-52.1,32.8-83.1.7-12.7-.6-24.3-4.3-38.4C488.5-441.7,402.4-493.9,316.1-484.9Zm37,19.9c40.9,4,77.3,21.1,104,48.6,17.4,18,28.3,38.1,33,60.9,2,9.3,1.7,31.4-.4,41.5-4.7,21.5-13.4,39-28.1,56.1-8.2,9.6-9.9,15.2-9.8,31.9,0,12.1,2,22.3,6.2,31.7,1.1,2.5,1.9,4.8,1.7,5-.6.5-13.9-4.3-19.2-7-5.4-2.8-12.9-8.2-22.5-16.5-7-6-9.3-6.4-18.6-3.2-11.8,4.1-34.9,8.5-47.9,9.2l-6,.3-.3-3c-3.1-32-19.8-65-45-88.6l-8.5-7.9H425l3.2-2.9c2.7-2.4,3.3-3.6,3.3-7.1s-.6-4.7-3.3-7.1L425-326H261.2l-6.9-3.1c-16.9-7.6-40.4-14.1-55.8-15.4-12.4-1.1-11.9-.7-11.1-7.3,3.1-26.7,19.2-55.4,42-75.4C262.2-455.8,307.1-469.5,353.1-465ZM196-324.6c66,7.9,115.9,49.9,128.1,108.1,1.6,7.7,1.6,32.1,0,40.5-7.4,38.8-34.8,73.4-73.6,92.8C212-64,161.4-60.9,116.2-75.1c-13.2-4.1-14.8-4-22.2,2.3-9.6,8.3-17.1,13.7-22.5,16.5-5.3,2.7-18.6,7.5-19.2,7-.2-.2.6-2.5,1.7-5,4.2-9.4,6.2-19.6,6.2-31.7.1-16.7-1.6-22.3-9.8-31.9C35.7-135,27-152.5,22.3-174c-2.1-10.1-2.4-32.2-.4-41.5,4.7-22.8,15.6-42.9,33-60.9C90.1-312.7,143.1-330.9,196-324.6Z" fill="#00296b"/>
    <path id="Path_4" data-name="Path 4" d="M252.4-385c-3.2,1.3-6.4,5.9-6.4,9.1,0,4,4.6,8.8,9.1,9.5,3.1.5,4.2.1,7-2.4s3.4-3.7,3.4-7.2-.6-4.7-3.3-7.1C258.9-386,256.2-386.6,252.4-385Z" fill="#00296b"/>
    <path id="Path_5" data-name="Path 5" d="M292.4-385c-3.2,1.3-6.4,5.9-6.4,9.1,0,1.8,1.1,4.1,2.9,6.1l2.9,3.3,66.6.3,66.5.2,3.3-2.9c2.7-2.4,3.3-3.6,3.3-7.1s-.6-4.7-3.3-7.1L425-386l-65.3.1C323.9-385.9,293.5-385.5,292.4-385Z" fill="#00296b"/>
    <path id="Path_6" data-name="Path 6" d="M86.5-225.1c-6.2,2.6-8.1,11-3.4,15.6a14.16,14.16,0,0,0,6.2,3.2c3.2.5,4.1.1,7.2-3,4.7-4.7,4.8-8.6.1-13.3C93.2-226,90.5-226.7,86.5-225.1Z" fill="#00296b"/>
    <path id="Path_7" data-name="Path 7" d="M126.5-225.1a9.692,9.692,0,0,0-3.2,15.8l2.7,2.8,66.5.3,66.4.2,3.3-2.9c2.7-2.4,3.3-3.6,3.3-7.1s-.6-4.7-3.3-7.1L259-226l-65.3.1C157.9-225.9,127.6-225.5,126.5-225.1Z" fill="#00296b"/>
    <path id="Path_8" data-name="Path 8" d="M86.5-165.1a9.692,9.692,0,0,0-3.2,15.8l2.7,2.8,86.5.3,86.4.2,3.3-2.9c2.7-2.4,3.3-3.6,3.3-7.1s-.6-4.7-3.3-7.1L259-166l-85.3.1C126.9-165.9,87.6-165.5,86.5-165.1Z" fill="#00296b"/>
  </g>
</svg>
