<svg xmlns="http://www.w3.org/2000/svg" width="511.277" height="511.422" viewBox="0 0 511.277 511.422">
  <g id="zoom" transform="translate(542.513 530.616)">
    <path id="Path_9" data-name="Path 9" d="M302.5-511.4a250.171,250.171,0,0,0-30.5,4.6,193.278,193.278,0,0,0-94.6,52.3c-30.1,30.4-47.7,64.8-55.6,108.5-.8,4.9-1.3,15.5-1.2,31,0,21.6.2,24.6,2.7,36.7,6.6,31.8,21.1,62.4,41.1,86.7l5.7,7-7.4,7.3-7.3,7.4-5.1-3.4c-9.7-6.6-21.6-6.9-32.4-1.1q-4.65,2.55-59.1,57.2C-1.9-56.3.5-59.3.5-45.5.5-34.8,3.7-29,16.3-16.3,27.3-5.4,33.5-1.6,42.2-.4c6.3.9,14.3-1.2,20.3-5.2,7.5-5,109.8-107.9,112.4-113.2,5.2-10.4,4.6-22.3-1.6-31.5l-3.4-5.1,7.3-7.3,7.3-7.3,7.3,6c25.4,20.7,54.3,34.1,88.9,41.2,9.4,2,13.9,2.2,35.3,2.3,26.7,0,34.4-1.1,56-7.5,106.8-31.7,165.4-146.3,128.9-252-23.5-67.9-84.7-118.8-155.6-129.5C335-511,310-512.1,302.5-511.4Zm35.2,21.9c59.9,7.9,111.1,45,136.4,99,24.6,52.5,21.8,114.4-7.5,163.9a177.051,177.051,0,0,1-127.1,84.7c-11.3,1.6-37.5,1.6-48,0-48.9-7.5-90.5-33-119.2-72.9-7.8-10.8-18.3-31.5-22.7-44.7a175.784,175.784,0,0,1,15.7-146.2C201.1-465.4,269.1-498.4,337.7-489.5ZM137.8-156.6c4.1,2.2,19,17.9,19.7,20.9a12.752,12.752,0,0,1,0,5.5c-.7,3-102,105.3-106.7,107.8-6.2,3.2-8.4,2.2-19.5-8.9C21.3-41.3,21-41.8,21-46v-4.4l51.8-51.9c28.4-28.6,53.1-52.8,54.7-53.8C131.1-158.4,134.1-158.5,137.8-156.6Z" transform="translate(-543 -19)" fill="#00296b"/>
    <path id="Path_10" data-name="Path 10" d="M417.7-418.2c-3.7,3.7-6.7,7.1-6.7,7.6s2.4,3.4,5.3,6.5c10.3,11.2,21.5,30.6,26.5,46.1a139.468,139.468,0,0,1,3.2,73.3,136.258,136.258,0,0,1-29.4,57.1l-5.9,6.8,7.2,7.2,7.2,7.1,5.1-5.5C472-256.9,482-326,454.9-382.6A159.465,159.465,0,0,0,432-417.5c-3.4-3.9-6.5-7.1-6.8-7.3C424.8-424.9,421.4-422,417.7-418.2Z" transform="translate(-543 -19)" fill="#00296b"/>
  </g>
</svg>
