<svg xmlns="http://www.w3.org/2000/svg" xmlns:xlink="http://www.w3.org/1999/xlink" width="33.484" height="33.618" viewBox="0 0 33.484 33.618">
  <defs>
    <clipPath id="clip-path">
      <rect id="Rectangle_53" data-name="Rectangle 53" width="33.484" height="33.618" fill="#fff"/>
    </clipPath>
  </defs>
  <g id="Group_44" data-name="Group 44" transform="translate(-202.113 -101.335)">
    <g id="Group_43" data-name="Group 43" transform="translate(202.113 101.335)">
      <g id="Group_42" data-name="Group 42" clip-path="url(#clip-path)">
        <path id="Path_56" data-name="Path 56" d="M218.87,101.289a16.758,16.758,0,1,0,16.759,16.758,16.758,16.758,0,0,0-16.759-16.758Zm6.811,24.258v1.16a1.159,1.159,0,0,1-1.16,1.159h-11.59a2.318,2.318,0,0,1-2.318-2.318V110.963a2.319,2.319,0,0,1,2.318-2.318h11.59a1.16,1.16,0,0,1,1.16,1.16ZM228,110.963v15.744a1.159,1.159,0,0,1-1.159,1.159h-.313a2.3,2.3,0,0,0,.313-1.159V109.8a2.305,2.305,0,0,0-.313-1.159h.313A1.159,1.159,0,0,1,228,109.8Zm0,0" transform="translate(-202.113 -101.322)" fill="#fff"/>
      </g>
    </g>
    <path id="Path_57" data-name="Path 57" d="M226.049,124.478s-.437-.525-.921-.162c-.361.269-1.008.868-1.164,1.014a13.016,13.016,0,0,1-1.723-1.1,9.065,9.065,0,0,1-1.916-2.292l-.249-.469c.086-.093.75-.8,1.036-1.189.361-.483-.162-.92-.162-.92s-1.473-1.473-1.809-1.765a.722.722,0,0,0-.722-.13,2.7,2.7,0,0,0-1.48,2.758c0,1.785,1.353,3.624,2.817,5.049,1.466,1.609,3.481,3.221,5.429,3.219a2.7,2.7,0,0,0,2.756-1.479.721.721,0,0,0-.13-.722c-.292-.336-1.765-1.808-1.765-1.808Zm0,0" transform="translate(-4.318 -4.683)" fill="#fff"/>
  </g>
</svg>
