<svg xmlns="http://www.w3.org/2000/svg" xmlns:xlink="http://www.w3.org/1999/xlink" width="33.484" height="33.618" viewBox="0 0 33.484 33.618">
  <defs>
    <clipPath id="clip-path">
      <rect id="Rectangle_52" data-name="Rectangle 52" width="33.484" height="33.618" fill="#fff"/>
    </clipPath>
  </defs>
  <g id="Group_41" data-name="Group 41" transform="translate(-221.546 -353.733)">
    <g id="Group_40" data-name="Group 40" transform="translate(221.546 353.733)">
      <g id="Group_39" data-name="Group 39" clip-path="url(#clip-path)">
        <path id="Path_55" data-name="Path 55" d="M238.3,353.687a16.758,16.758,0,1,0,16.758,16.758A16.758,16.758,0,0,0,238.3,353.687Zm0,5.886,9.916,6.184H228.387Zm10.04,16.059h0a1.8,1.8,0,0,1-1.8,1.8H230.06a1.8,1.8,0,0,1-1.8-1.8V366.15a1.822,1.822,0,0,1,.028-.307l9.476,5.909c.011.007.024.012.035.018l.038.02a.977.977,0,0,0,.206.081l.022,0a1.051,1.051,0,0,0,.234.029h0a1.011,1.011,0,0,0,.234-.029l.022,0a1.009,1.009,0,0,0,.206-.081l.038-.02c.011-.006.024-.011.035-.018l9.475-5.909a1.752,1.752,0,0,1,.028.307Zm0,0" transform="translate(-221.546 -353.72)" fill="#fff"/>
      </g>
    </g>
  </g>
</svg>
